# xmcd
#
# Track frame offsets:
#	182
#	3600
#	14020
#	25520
#	38397
#	42322
#	57467
#	71822
#	86500
#	93040
#	107307
#	120505
#	132460
#	145892
#	149732
#	164265
#	177107
#	190595
#	194965
#
# Disc length: 2778 seconds
#
# Revision: 0
# Processed by: cddbd v1.4PL0 Copyright (c) Steve Scherf et al.
# Submitted via: audiograbber 1.81.02
#
DISCID=060ad813
DTITLE=Various Artist -  Rhapsodies In Black - Music And Words From The Harlem Renaiss
DTITLE=ance - Disc 1: Struttin' and Stridin'
DYEAR=2000
DGENRE=Blues
TTITLE0=Quincy Jones - The Negro Speaks of Rivers (Poem by Langston Hughes)
TTITLE1=Duke Ellington - Cotton Club Stomp
TTITLE2=James P. Johnson - The Harlem Strut
TTITLE3=Bert Williams - Brother Low Down
TTITLE4=Wally "Famous" Amos - Letter from Aaron Douglas to Langston Hughes
TTITLE5=Ethel Waters - There'll Be Some Changes Made
TTITLE6=Eubie Blake - Sounds Of Africa
TTITLE7=Mamie Smith - Sweet Man O' Mine
TTITLE8=Branford Marsalis - The Weary Blues (Poem by Langstron Hughes)
TTITLE9=Ida Cox - Blues Ain't Nothin Else But!
TTITLE10=Clarence Williams' Blue Five - Kansas City Man Blues
TTITLE11=Wilber C. Sweatman's Original Jazz Band - Indianola
TTITLE12=Rosa Henderson - Hard Hearted Hannah
TTITLE13=Angela Basset - Sonnet to a Negro in Harlem (Poem by Helene Johnson)
TTITLE14=Bessie Smith - St. Louis Blues
TTITLE15=Fletcher Henderson - Copenhagen
TTITLE16=Clarence Williams' Blue Five - Cake Walking Babies From Home
TTITLE17=Darius Rucker - Long Gone (Poem By Sterling Brown)
TTITLE18=Trixie Smith - Railroad Blues
EXTD=
EXTT0=
EXTT1=
EXTT2=
EXTT3=
EXTT4=
EXTT5=
EXTT6=
EXTT7=
EXTT8=
EXTT9=
EXTT10=
EXTT11=
EXTT12=
EXTT13=
EXTT14=
EXTT15=
EXTT16=
EXTT17=
EXTT18=
PLAYORDER=
